<?xml version="1.0" encoding="utf-8"?>
<!-- Generator: Adobe Illustrator 22.0.0, SVG Export Plug-In . SVG Version: 6.00 Build 0)  -->
<svg version="1.1" id="Layer_1" xmlns="http://www.w3.org/2000/svg" xmlns:xlink="http://www.w3.org/1999/xlink" x="0px" y="0px"
	 viewBox="0 0 500 500" style="enable-background:new 0 0 500 500;" xml:space="preserve">
<style type="text/css">
	.st0{fill:#AAB1BA;}
	.st1{fill:#FDDF7F;}
	.st2{fill:#ECF4F7;}
	.st3{fill:#83E1E5;}
	.st4{fill:#1C1D21;}
	.st5{fill:none;}
</style>
<g>
	<path class="st0" d="M434.58,60.695H65.42c-17.99,0-32.573,14.584-32.573,32.572v369.16C32.848,480.417,47.431,495,65.42,495
		H434.58c17.989,0,32.573-14.583,32.573-32.572V93.268C467.152,75.279,452.569,60.695,434.58,60.695z"/>
</g>
<g>
	<path class="st2" d="M65.42,495h40.553V60.695H65.42c-17.989,0-32.573,14.583-32.573,32.573v369.159
		C32.848,480.417,47.431,495,65.42,495z"/>
</g>
<g>
	<path class="st2" d="M434.58,495h-40.553V60.695h40.553c17.99,0,32.573,14.583,32.573,32.573v369.159
		C467.152,480.417,452.569,495,434.58,495z"/>
</g>
<g>
	<path class="st3" d="M426.082,430.729h10.011c3.725,0,6.745,3.02,6.745,6.745v17.705c0,3.725-3.02,6.745-6.745,6.745h-10.011
		c-3.725,0-6.745-3.02-6.745-6.745v-17.705C419.337,433.749,422.357,430.729,426.082,430.729z"/>
</g>
<g>
	<path class="st3" d="M426.082,363.338h10.011c3.725,0,6.745,3.02,6.745,6.745v17.705c0,3.725-3.02,6.745-6.745,6.745h-10.011
		c-3.725,0-6.745-3.02-6.745-6.745v-17.705C419.337,366.358,422.357,363.338,426.082,363.338z"/>
</g>
<g>
	<path class="st3" d="M426.082,295.946h10.011c3.725,0,6.745,3.02,6.745,6.745v17.705c0,3.725-3.02,6.745-6.745,6.745h-10.011
		c-3.725,0-6.745-3.02-6.745-6.745v-17.705C419.337,298.966,422.357,295.946,426.082,295.946z"/>
</g>
<g>
	<path class="st3" d="M426.082,228.554h10.011c3.725,0,6.745,3.02,6.745,6.745v17.705c0,3.725-3.02,6.745-6.745,6.745h-10.011
		c-3.725,0-6.745-3.02-6.745-6.745v-17.705C419.337,231.574,422.357,228.554,426.082,228.554z"/>
</g>
<g>
	<path class="st3" d="M426.082,161.162h10.011c3.725,0,6.745,3.02,6.745,6.745v17.705c0,3.725-3.02,6.745-6.745,6.745h-10.011
		c-3.725,0-6.745-3.02-6.745-6.745v-17.705C419.337,164.182,422.357,161.162,426.082,161.162z"/>
</g>
<g>
	<path class="st3" d="M426.082,93.77h10.011c3.725,0,6.745,3.02,6.745,6.745v17.705c0,3.725-3.02,6.745-6.745,6.745h-10.011
		c-3.725,0-6.745-3.02-6.745-6.745v-17.705C419.337,96.79,422.357,93.77,426.082,93.77z"/>
</g>
<g>
	<path class="st3" d="M63.907,430.729h10.011c3.725,0,6.745,3.02,6.745,6.745v17.705c0,3.725-3.02,6.745-6.745,6.745H63.907
		c-3.725,0-6.745-3.02-6.745-6.745v-17.705C57.162,433.749,60.182,430.729,63.907,430.729z"/>
</g>
<g>
	<path class="st3" d="M63.907,363.338h10.011c3.725,0,6.745,3.02,6.745,6.745v17.705c0,3.725-3.02,6.745-6.745,6.745H63.907
		c-3.725,0-6.745-3.02-6.745-6.745v-17.705C57.162,366.358,60.182,363.338,63.907,363.338z"/>
</g>
<g>
	<path class="st3" d="M63.907,295.946h10.011c3.725,0,6.745,3.02,6.745,6.745v17.705c0,3.725-3.02,6.745-6.745,6.745H63.907
		c-3.725,0-6.745-3.02-6.745-6.745v-17.705C57.162,298.966,60.182,295.946,63.907,295.946z"/>
</g>
<g>
	<path class="st3" d="M63.907,228.554h10.011c3.725,0,6.745,3.02,6.745,6.745v17.705c0,3.725-3.02,6.745-6.745,6.745H63.907
		c-3.725,0-6.745-3.02-6.745-6.745v-17.705C57.162,231.574,60.182,228.554,63.907,228.554z"/>
</g>
<g>
	<path class="st3" d="M63.907,161.162h10.011c3.725,0,6.745,3.02,6.745,6.745v17.705c0,3.725-3.02,6.745-6.745,6.745H63.907
		c-3.725,0-6.745-3.02-6.745-6.745v-17.705C57.162,164.182,60.182,161.162,63.907,161.162z"/>
</g>
<g>
	<path class="st3" d="M63.907,93.77h10.011c3.725,0,6.745,3.02,6.745,6.745v17.705c0,3.725-3.02,6.745-6.745,6.745H63.907
		c-3.725,0-6.745-3.02-6.745-6.745v-17.705C57.162,96.79,60.182,93.77,63.907,93.77z"/>
</g>
<g>
	<path class="st2" d="M310.683,234.114v-64.263H189.317v64.263c0,24.153,19.58,43.733,43.734,43.733
		c-24.153,0-43.734,19.58-43.734,43.734v64.263h121.365v-64.263c0-24.154-19.58-43.734-43.734-43.734
		C291.102,277.847,310.683,258.267,310.683,234.114z"/>
</g>
<g>
	<path class="st1" d="M189.317,365.738v20.107h121.365v-20.107l-48.848-27.859c-7.335-4.183-16.333-4.183-23.668,0L189.317,365.738z
		"/>
</g>
<g>
	<path class="st1" d="M189.317,220.134v13.98c0,24.153,19.58,43.733,43.734,43.733h33.898c24.153,0,43.734-19.58,43.734-43.733
		v-13.98H189.317z"/>
</g>
<path class="st4" d="M434.58,55.695H65.42c-20.718,0-37.573,16.854-37.573,37.572v369.16C27.848,483.146,44.703,500,65.42,500
	H434.58c20.718,0,37.573-16.854,37.573-37.572V93.268C472.152,72.55,455.297,55.695,434.58,55.695z M462.152,462.428
	c0,15.203-12.369,27.572-27.573,27.572H65.42c-15.204,0-27.573-12.369-27.573-27.572V93.268c0-15.203,12.369-27.572,27.573-27.572
	H434.58c15.204,0,27.573,12.369,27.573,27.572V462.428z M436.093,425.729h-10.011c-6.477,0-11.746,5.269-11.746,11.745v17.705
	c0,6.477,5.269,11.745,11.746,11.745h10.011c6.476,0,11.745-5.269,11.745-11.745v-17.705
	C447.838,430.998,442.569,425.729,436.093,425.729z M437.838,455.18c0,0.962-0.783,1.745-1.745,1.745h-10.011
	c-0.962,0-1.746-0.783-1.746-1.745v-17.705c0-0.962,0.783-1.745,1.746-1.745h10.011c0.962,0,1.745,0.783,1.745,1.745V455.18z
	 M436.093,358.338h-10.011c-6.477,0-11.746,5.269-11.746,11.745v17.705c0,6.477,5.269,11.745,11.746,11.745h10.011
	c6.476,0,11.745-5.269,11.745-11.745v-17.705C447.838,363.606,442.569,358.338,436.093,358.338z M437.838,387.788
	c0,0.962-0.783,1.745-1.745,1.745h-10.011c-0.962,0-1.746-0.783-1.746-1.745v-17.705c0-0.962,0.783-1.745,1.746-1.745h10.011
	c0.962,0,1.745,0.783,1.745,1.745V387.788z M436.093,290.945h-10.011c-6.477,0-11.746,5.27-11.746,11.746v17.705
	c0,6.477,5.269,11.745,11.746,11.745h10.011c6.476,0,11.745-5.269,11.745-11.745v-17.705
	C447.838,296.215,442.569,290.945,436.093,290.945z M437.838,320.396c0,0.962-0.783,1.745-1.745,1.745h-10.011
	c-0.962,0-1.746-0.783-1.746-1.745v-17.705c0-0.963,0.783-1.746,1.746-1.746h10.011c0.962,0,1.745,0.783,1.745,1.746V320.396z
	 M436.093,223.554h-10.011c-6.477,0-11.746,5.269-11.746,11.745v17.705c0,6.477,5.269,11.745,11.746,11.745h10.011
	c6.476,0,11.745-5.269,11.745-11.745v-17.705C447.838,228.822,442.569,223.554,436.093,223.554z M437.838,253.004
	c0,0.962-0.783,1.745-1.745,1.745h-10.011c-0.962,0-1.746-0.783-1.746-1.745v-17.705c0-0.962,0.783-1.745,1.746-1.745h10.011
	c0.962,0,1.745,0.783,1.745,1.745V253.004z M436.093,156.162h-10.011c-6.477,0-11.746,5.269-11.746,11.745v17.705
	c0,6.477,5.269,11.745,11.746,11.745h10.011c6.476,0,11.745-5.269,11.745-11.745v-17.705
	C447.838,161.431,442.569,156.162,436.093,156.162z M437.838,185.612c0,0.962-0.783,1.745-1.745,1.745h-10.011
	c-0.962,0-1.746-0.783-1.746-1.745v-17.705c0-0.962,0.783-1.745,1.746-1.745h10.011c0.962,0,1.745,0.783,1.745,1.745V185.612z
	 M436.093,88.771h-10.011c-6.477,0-11.746,5.269-11.746,11.745v17.705c0,6.477,5.269,11.745,11.746,11.745h10.011
	c6.476,0,11.745-5.269,11.745-11.745v-17.705C447.838,94.039,442.569,88.771,436.093,88.771z M437.838,118.221
	c0,0.962-0.783,1.745-1.745,1.745h-10.011c-0.962,0-1.746-0.783-1.746-1.745v-17.705c0-0.962,0.783-1.745,1.746-1.745h10.011
	c0.962,0,1.745,0.783,1.745,1.745V118.221z M73.917,425.729H63.907c-6.476,0-11.745,5.269-11.745,11.745v17.705
	c0,6.477,5.269,11.745,11.745,11.745h10.011c6.477,0,11.746-5.269,11.746-11.745v-17.705
	C85.663,430.998,80.394,425.729,73.917,425.729z M75.663,455.18c0,0.962-0.783,1.745-1.746,1.745H63.907
	c-0.962,0-1.745-0.783-1.745-1.745v-17.705c0-0.962,0.783-1.745,1.745-1.745h10.011c0.962,0,1.746,0.783,1.746,1.745V455.18z
	 M73.917,358.338H63.907c-6.476,0-11.745,5.269-11.745,11.745v17.705c0,6.477,5.269,11.745,11.745,11.745h10.011
	c6.477,0,11.746-5.269,11.746-11.745v-17.705C85.663,363.606,80.394,358.338,73.917,358.338z M75.663,387.788
	c0,0.962-0.783,1.745-1.746,1.745H63.907c-0.962,0-1.745-0.783-1.745-1.745v-17.705c0-0.962,0.783-1.745,1.745-1.745h10.011
	c0.962,0,1.746,0.783,1.746,1.745V387.788z M73.917,290.945H63.907c-6.476,0-11.745,5.27-11.745,11.746v17.705
	c0,6.477,5.269,11.745,11.745,11.745h10.011c6.477,0,11.746-5.269,11.746-11.745v-17.705
	C85.663,296.215,80.394,290.945,73.917,290.945z M75.663,320.396c0,0.962-0.783,1.745-1.746,1.745H63.907
	c-0.962,0-1.745-0.783-1.745-1.745v-17.705c0-0.963,0.783-1.746,1.745-1.746h10.011c0.962,0,1.746,0.783,1.746,1.746V320.396z
	 M73.917,223.554H63.907c-6.476,0-11.745,5.269-11.745,11.745v17.705c0,6.477,5.269,11.745,11.745,11.745h10.011
	c6.477,0,11.746-5.269,11.746-11.745v-17.705C85.663,228.822,80.394,223.554,73.917,223.554z M75.663,253.004
	c0,0.962-0.783,1.745-1.746,1.745H63.907c-0.962,0-1.745-0.783-1.745-1.745v-17.705c0-0.962,0.783-1.745,1.745-1.745h10.011
	c0.962,0,1.746,0.783,1.746,1.745V253.004z M73.917,156.162H63.907c-6.476,0-11.745,5.269-11.745,11.745v17.705
	c0,6.477,5.269,11.745,11.745,11.745h10.011c6.477,0,11.746-5.269,11.746-11.745v-17.705
	C85.663,161.431,80.394,156.162,73.917,156.162z M75.663,185.612c0,0.962-0.783,1.745-1.746,1.745H63.907
	c-0.962,0-1.745-0.783-1.745-1.745v-17.705c0-0.962,0.783-1.745,1.745-1.745h10.011c0.962,0,1.746,0.783,1.746,1.745V185.612z
	 M73.917,88.771H63.907c-6.476,0-11.745,5.269-11.745,11.745v17.705c0,6.477,5.269,11.745,11.745,11.745h10.011
	c6.477,0,11.746-5.269,11.746-11.745v-17.705C85.663,94.039,80.394,88.771,73.917,88.771z M75.663,118.221
	c0,0.962-0.783,1.745-1.746,1.745H63.907c-0.962,0-1.745-0.783-1.745-1.745v-17.705c0-0.962,0.783-1.745,1.745-1.745h10.011
	c0.962,0,1.746,0.783,1.746,1.745V118.221z M399.026,82.399v390.896c0,2.762-2.239,5-5,5s-5-2.238-5-5V82.399c0-2.762,2.239-5,5-5
	S399.026,79.638,399.026,82.399z M110.973,82.399v390.896c0,2.762-2.239,5-5,5s-5-2.238-5-5V82.399c0-2.762,2.239-5,5-5
	S110.973,79.638,110.973,82.399z M183.716,16.534c0-2.762,2.239-5,5-5h6.534V5c0-2.762,2.239-5,5-5s5,2.238,5,5v6.534h6.535
	c2.761,0,5,2.238,5,5s-2.239,5-5,5h-6.535v6.535c0,2.762-2.239,5-5,5s-5-2.238-5-5v-6.535h-6.534
	C185.955,21.534,183.716,19.296,183.716,16.534z M283.215,16.534c0-2.762,2.239-5,5-5h6.535V5c0-2.762,2.239-5,5-5s5,2.238,5,5
	v6.534h6.534c2.761,0,5,2.238,5,5s-2.239,5-5,5h-6.534v6.535c0,2.762-2.239,5-5,5s-5-2.238-5-5v-6.535h-6.535
	C285.454,21.534,283.215,19.296,283.215,16.534z M245,301.778v-1.968c0-2.762,2.239-5,5-5s5,2.238,5,5v1.968c0,2.762-2.239,5-5,5
	S245,304.54,245,301.778z M245,318.547v-1.969c0-2.762,2.239-5,5-5s5,2.238,5,5v1.969c0,2.762-2.239,5-5,5S245,321.309,245,318.547z
	 M340.979,404.694h-14.03c0.065-0.495,0.111-0.996,0.111-1.509v-10.832c0-6.301-5.092-11.431-11.377-11.502v-59.271
	c0-19.169-11.128-35.78-27.26-43.733c16.131-7.953,27.26-24.564,27.26-43.733v-59.271c6.285-0.071,11.377-5.201,11.377-11.502
	V152.51c0-6.346-5.163-11.509-11.509-11.509H184.449c-6.346,0-11.509,5.163-11.509,11.509v10.832
	c0,6.301,5.092,11.431,11.377,11.502v59.271c0,19.169,11.128,35.78,27.26,43.733c-16.131,7.953-27.26,24.564-27.26,43.733v59.271
	c-6.285,0.071-11.377,5.201-11.377,11.502v10.832c0,0.513,0.045,1.014,0.111,1.509h-14.03c-2.761,0-5,2.238-5,5s2.239,5,5,5h25.428
	h131.102h25.428c2.761,0,5-2.238,5-5S343.74,404.694,340.979,404.694z M182.94,163.342V152.51c0-0.832,0.677-1.509,1.509-1.509
	h131.102c0.832,0,1.509,0.677,1.509,1.509v10.832c0,0.832-0.677,1.509-1.509,1.509h-4.868H189.317h-4.868
	C183.617,164.851,182.94,164.174,182.94,163.342z M194.317,234.114v-8.98h80.585c2.761,0,5-2.238,5-5s-2.239-5-5-5h-80.585v-40.283
	h111.365v40.283h-14.904c-2.761,0-5,2.238-5,5s2.239,5,5,5h14.904v8.98c0,21.357-17.375,38.733-38.733,38.733h-33.898
	C211.693,272.848,194.317,255.472,194.317,234.114z M233.051,282.848H245v2.402c0,2.762,2.239,5,5,5s5-2.238,5-5v-2.402h11.949
	c21.358,0,38.733,17.376,38.733,38.733v35.549l-41.371-23.594c-8.827-5.037-19.795-5.036-28.623-0.001l-21.674,12.36
	c-2.399,1.368-3.234,4.422-1.866,6.82c1.369,2.399,4.421,3.233,6.82,1.867l21.674-12.361c5.772-3.291,12.944-3.291,18.714,0.001
	l46.325,26.421v12.201H194.317v-12.202l12.079-6.89c2.399-1.367,3.234-4.421,1.866-6.82c-1.369-2.399-4.423-3.235-6.82-1.865
	l-7.125,4.063v-35.55C194.317,300.224,211.693,282.848,233.051,282.848z M184.449,404.694c-0.832,0-1.509-0.677-1.509-1.509v-10.832
	c0-0.832,0.677-1.509,1.509-1.509h4.868h121.365h4.868c0.832,0,1.509,0.677,1.509,1.509v10.832c0,0.832-0.677,1.509-1.509,1.509
	H184.449z M147.04,409.694c0,2.762-2.239,5-5,5h-1.945c-2.761,0-5-2.238-5-5s2.239-5,5-5h1.945
	C144.801,404.694,147.04,406.933,147.04,409.694z M364.905,409.694c0,2.762-2.239,5-5,5h-1.945c-2.761,0-5-2.238-5-5s2.239-5,5-5
	h1.945C362.667,404.694,364.905,406.933,364.905,409.694z"/>
</svg>
